<svg data-v-423bf9ae="" xmlns="http://www.w3.org/2000/svg" viewBox="0 0 1123.3125640936235 193" class="fontAboveSlogan"><!----><!----><!----><g data-v-423bf9ae="" id="32b2134e-6b3d-487d-957a-be6706effa49" fill="#000000" transform="matrix(12.79317811689364,0,0,12.79317811689364,390.6895292166421,-35.72849003520065)"><path d="M3.11 4.68L3.12 8.48L3.12 8.48Q3.14 9.94 3.69 10.77L3.69 10.77L3.69 10.77Q4.24 11.61 5.35 11.61L5.35 11.61L5.35 11.61Q6.78 11.61 7.43 10.75L7.43 10.75L7.43 10.75Q8.08 9.90 8.08 8.06L8.08 8.06L8.08 2.86L8.78 2.86L8.78 8.06L8.78 8.06Q8.78 9.06 8.58 9.83L8.58 9.83L8.58 9.83Q8.39 10.60 7.95 11.14L7.95 11.14L7.95 11.14Q7.50 11.68 6.80 11.96L6.80 11.96L6.80 11.96Q6.09 12.24 5.07 12.24L5.07 12.24L5.07 12.24Q1.29 12.24 1.29 8.06L1.29 8.06L1.29 4.68L1.29 4.68Q1.29 4.05 1.11 3.66L1.11 3.66L1.11 3.66Q0.94 3.28 0.31 3.28L0.31 3.28L0.31 2.86L1.85 2.86L1.85 2.86Q2.21 2.86 2.46 2.95L2.46 2.95L2.46 2.95Q2.70 3.04 2.85 3.25L2.85 3.25L2.85 3.25Q3.00 3.46 3.05 3.81L3.05 3.81L3.05 3.81Q3.11 4.16 3.11 4.68L3.11 4.68ZM16.14 9.72L16.14 12.10L14.32 12.10L14.32 9.72L9.84 9.72L9.84 9.16L14.69 2.86L16.14 2.86L16.14 9.09L17.40 9.09L17.40 9.72L16.14 9.72ZM10.81 9.09L14.32 9.09L14.32 4.49L10.81 9.09ZM21.80 3.42L21.80 3.42L21.80 3.42Q21.63 3.42 21.46 3.43L21.46 3.43L21.46 3.43Q21.29 3.44 21.17 3.47L21.17 3.47L21.17 3.47Q21.01 3.50 20.89 3.51L20.89 3.51L20.89 7.31L21.73 7.31L21.73 7.31Q22.06 7.31 22.40 7.21L22.40 7.21L22.40 7.21Q22.74 7.11 23.01 6.89L23.01 6.89L23.01 6.89Q23.28 6.66 23.45 6.29L23.45 6.29L23.45 6.29Q23.62 5.91 23.62 5.36L23.62 5.36L23.62 5.36Q23.62 4.82 23.45 4.45L23.45 4.45L23.45 4.45Q23.28 4.07 23.02 3.84L23.02 3.84L23.02 3.84Q22.75 3.61 22.43 3.51L22.43 3.51L22.43 3.51Q22.11 3.42 21.80 3.42ZM22.85 10.21L21.45 7.87L20.89 7.87L20.89 12.10L19.05 12.10L19.05 4.68L19.05 4.68Q19.05 4.05 18.88 3.66L18.88 3.66L18.88 3.66Q18.70 3.28 18.07 3.28L18.07 3.28L17.93 3.28L17.93 2.86L21.80 2.86L21.80 2.86Q22.13 2.86 22.54 2.88L22.54 2.88L22.54 2.88Q22.95 2.91 23.37 3.01L23.37 3.01L23.37 3.01Q23.79 3.11 24.19 3.28L24.19 3.28L24.19 3.28Q24.58 3.46 24.89 3.74L24.89 3.74L24.89 3.74Q25.20 4.03 25.39 4.45L25.39 4.45L25.39 4.45Q25.58 4.86 25.58 5.43L25.58 5.43L25.58 5.43Q25.58 5.98 25.38 6.38L25.38 6.38L25.38 6.38Q25.17 6.78 24.84 7.05L24.84 7.05L24.84 7.05Q24.51 7.32 24.11 7.49L24.11 7.49L24.11 7.49Q23.70 7.66 23.31 7.76L23.31 7.76L24.78 10.21L24.78 10.21Q25.05 10.65 25.29 10.94L25.29 10.94L25.29 10.94Q25.54 11.23 25.76 11.40L25.76 11.40L25.76 11.40Q25.98 11.56 26.17 11.64L26.17 11.64L26.17 11.64Q26.36 11.72 26.52 11.75L26.52 11.75L26.52 12.10L26.52 12.10Q26.40 12.15 26.12 12.19L26.12 12.19L26.12 12.19Q25.83 12.24 25.56 12.24L25.56 12.24L25.56 12.24Q25.20 12.24 24.86 12.14L24.86 12.14L24.86 12.14Q24.51 12.04 24.19 11.80L24.19 11.80L24.19 11.80Q23.86 11.56 23.53 11.17L23.53 11.17L23.53 11.17Q23.20 10.78 22.85 10.21L22.85 10.21Z"></path></g><!----><!----><g data-v-423bf9ae="" id="898e16e3-bf62-4f43-95e4-dd50b92d78c1" fill="#000000" transform="matrix(4.687500279396789,0,0,4.687500279396789,-5.765615041369642,106.37499683350319)"><path d="M2.66 10.53L2.66 10.53L2.66 10.53Q2.66 11.03 3.09 11.30L3.09 11.30L3.09 11.30Q3.51 11.56 4.65 11.65L4.65 11.65L4.65 11.65Q5.87 11.75 6.50 12.23L6.50 12.23L6.50 12.23Q7.14 12.71 7.14 13.64L7.14 13.64L7.14 13.72L7.14 13.72Q7.14 14.22 6.94 14.62L6.94 14.62L6.94 14.62Q6.73 15.02 6.38 15.30L6.38 15.30L6.38 15.30Q6.02 15.58 5.51 15.73L5.51 15.73L5.51 15.73Q5.00 15.88 4.40 15.88L4.40 15.88L4.40 15.88Q3.58 15.88 3.00 15.66L3.00 15.66L3.00 15.66Q2.42 15.44 2.04 15.08L2.04 15.08L2.04 15.08Q1.65 14.73 1.46 14.27L1.46 14.27L1.46 14.27Q1.26 13.82 1.23 13.36L1.23 13.36L2.27 13.10L2.27 13.10Q2.34 13.90 2.88 14.38L2.88 14.38L2.88 14.38Q3.43 14.87 4.34 14.87L4.34 14.87L4.34 14.87Q5.11 14.87 5.58 14.57L5.58 14.57L5.58 14.57Q6.05 14.27 6.05 13.72L6.05 13.72L6.05 13.72Q6.05 13.13 5.59 12.88L5.59 12.88L5.59 12.88Q5.12 12.63 4.09 12.56L4.09 12.56L4.09 12.56Q2.88 12.47 2.24 12.00L2.24 12.00L2.24 12.00Q1.60 11.52 1.60 10.61L1.60 10.61L1.60 10.53L1.60 10.53Q1.60 10.04 1.81 9.67L1.81 9.67L1.81 9.67Q2.02 9.30 2.37 9.04L2.37 9.04L2.37 9.04Q2.73 8.79 3.18 8.67L3.18 8.67L3.18 8.67Q3.63 8.54 4.12 8.54L4.12 8.54L4.12 8.54Q4.80 8.54 5.32 8.73L5.32 8.73L5.32 8.73Q5.84 8.92 6.19 9.22L6.19 9.22L6.19 9.22Q6.54 9.52 6.73 9.91L6.73 9.91L6.73 9.91Q6.92 10.30 6.97 10.70L6.97 10.70L5.94 10.95L5.94 10.95Q5.87 10.28 5.40 9.90L5.40 9.90L5.40 9.90Q4.93 9.52 4.17 9.52L4.17 9.52L4.17 9.52Q3.88 9.52 3.60 9.58L3.60 9.58L3.60 9.58Q3.33 9.65 3.12 9.77L3.12 9.77L3.12 9.77Q2.91 9.90 2.79 10.09L2.79 10.09L2.79 10.09Q2.66 10.28 2.66 10.53ZM16.55 9.74L16.55 8.74L18.73 8.74L18.73 5.88L19.82 5.88L19.82 8.74L22.51 8.74L22.51 9.74L19.82 9.74L19.82 14.25L19.82 14.25Q19.82 14.67 20.20 14.67L20.20 14.67L22.18 14.67L22.18 15.68L19.81 15.68L19.81 15.68Q19.33 15.68 19.03 15.37L19.03 15.37L19.03 15.37Q18.73 15.06 18.73 14.59L18.73 14.59L18.73 9.74L16.55 9.74ZM37.39 17.05L37.39 14.42L37.23 14.42L37.23 14.42Q36.89 15.09 36.34 15.48L36.34 15.48L36.34 15.48Q35.80 15.88 34.96 15.88L34.96 15.88L34.96 15.88Q34.38 15.88 33.90 15.69L33.90 15.69L33.90 15.69Q33.42 15.50 33.08 15.12L33.08 15.12L33.08 15.12Q32.73 14.74 32.54 14.18L32.54 14.18L32.54 14.18Q32.35 13.62 32.35 12.88L32.35 12.88L32.35 8.74L33.45 8.74L33.45 12.74L33.45 12.74Q33.45 13.83 33.89 14.34L33.89 14.34L33.89 14.34Q34.34 14.84 35.27 14.84L35.27 14.84L35.27 14.84Q36.26 14.84 36.83 14.16L36.83 14.16L36.83 14.16Q37.39 13.48 37.39 12.35L37.39 12.35L37.39 8.74L38.49 8.74L38.49 17.39L38.49 17.39Q38.49 17.86 38.19 18.17L38.19 18.17L38.19 18.17Q37.88 18.48 37.41 18.48L37.41 18.48L33.45 18.48L33.45 17.47L37.02 17.47L37.02 17.47Q37.39 17.47 37.39 17.05L37.39 17.05ZM47.92 15.68L47.92 14.67L50.44 14.67L50.44 6.89L48.01 6.89L48.01 5.88L51.53 5.88L51.53 14.67L54.05 14.67L54.05 15.68L47.92 15.68ZM69.89 12.54L64.29 12.54L64.29 12.54Q64.33 13.58 64.93 14.21L64.93 14.21L64.93 14.21Q65.53 14.84 66.61 14.84L66.61 14.84L66.61 14.84Q67.10 14.84 67.47 14.73L67.47 14.73L67.47 14.73Q67.83 14.62 68.09 14.42L68.09 14.42L68.09 14.42Q68.35 14.22 68.51 13.96L68.51 13.96L68.51 13.96Q68.67 13.71 68.77 13.41L68.77 13.41L69.80 13.69L69.80 13.69Q69.51 14.66 68.72 15.27L68.72 15.27L68.72 15.27Q67.93 15.88 66.58 15.88L66.58 15.88L66.58 15.88Q65.84 15.88 65.22 15.62L65.22 15.62L65.22 15.62Q64.60 15.36 64.15 14.88L64.15 14.88L64.15 14.88Q63.70 14.41 63.45 13.75L63.45 13.75L63.45 13.75Q63.20 13.09 63.20 12.29L63.20 12.29L63.20 11.96L63.20 11.96Q63.20 11.23 63.45 10.60L63.45 10.60L63.45 10.60Q63.71 9.97 64.18 9.51L64.18 9.51L64.18 9.51Q64.64 9.06 65.26 8.80L65.26 8.80L65.26 8.80Q65.88 8.54 66.61 8.54L66.61 8.54L66.61 8.54Q67.47 8.54 68.09 8.86L68.09 8.86L68.09 8.86Q68.71 9.17 69.11 9.63L69.11 9.63L69.11 9.63Q69.51 10.09 69.70 10.64L69.70 10.64L69.70 10.64Q69.89 11.19 69.89 11.65L69.89 11.65L69.89 12.54ZM66.61 9.58L66.61 9.58L66.61 9.58Q66.15 9.58 65.75 9.72L65.75 9.72L65.75 9.72Q65.35 9.87 65.05 10.14L65.05 10.14L65.05 10.14Q64.75 10.40 64.56 10.76L64.56 10.76L64.56 10.76Q64.37 11.12 64.32 11.54L64.32 11.54L68.80 11.54L68.80 11.54Q68.77 11.09 68.58 10.72L68.58 10.72L68.58 10.72Q68.39 10.36 68.09 10.11L68.09 10.11L68.09 10.11Q67.79 9.86 67.40 9.72L67.40 9.72L67.40 9.72Q67.02 9.58 66.61 9.58ZM94.23 9.74L94.23 8.74L96.75 8.74L96.75 9.66L96.92 9.66L96.92 9.66Q97.19 9.09 97.68 8.81L97.68 8.81L97.68 8.81Q98.17 8.54 98.80 8.54L98.80 8.54L98.80 8.54Q99.85 8.54 100.49 9.23L100.49 9.23L100.49 9.23Q101.14 9.91 101.18 11.23L101.18 11.23L100.03 11.40L100.03 11.40Q100.03 10.43 99.57 10.00L99.57 10.00L99.57 10.00Q99.11 9.58 98.43 9.58L98.43 9.58L98.43 9.58Q98 9.58 97.69 9.74L97.69 9.74L97.69 9.74Q97.37 9.91 97.16 10.21L97.16 10.21L97.16 10.21Q96.95 10.50 96.85 10.89L96.85 10.89L96.85 10.89Q96.75 11.28 96.75 11.73L96.75 11.73L96.75 14.67L98.52 14.67L98.52 15.68L94.07 15.68L94.07 14.67L95.66 14.67L95.66 9.74L94.23 9.74ZM116.59 12.54L110.99 12.54L110.99 12.54Q111.03 13.58 111.64 14.21L111.64 14.21L111.64 14.21Q112.24 14.84 113.32 14.84L113.32 14.84L113.32 14.84Q113.81 14.84 114.17 14.73L114.17 14.73L114.17 14.73Q114.53 14.62 114.79 14.42L114.79 14.42L114.79 14.42Q115.05 14.22 115.21 13.96L115.21 13.96L115.21 13.96Q115.37 13.71 115.47 13.41L115.47 13.41L116.51 13.69L116.51 13.69Q116.21 14.66 115.42 15.27L115.42 15.27L115.42 15.27Q114.63 15.88 113.29 15.88L113.29 15.88L113.29 15.88Q112.55 15.88 111.92 15.62L111.92 15.62L111.92 15.62Q111.30 15.36 110.85 14.88L110.85 14.88L110.85 14.88Q110.40 14.41 110.15 13.75L110.15 13.75L110.15 13.75Q109.90 13.09 109.90 12.29L109.90 12.29L109.90 11.96L109.90 11.96Q109.90 11.23 110.16 10.60L110.16 10.60L110.16 10.60Q110.42 9.97 110.88 9.51L110.88 9.51L110.88 9.51Q111.34 9.06 111.97 8.80L111.97 8.80L111.97 8.80Q112.59 8.54 113.32 8.54L113.32 8.54L113.32 8.54Q114.17 8.54 114.79 8.86L114.79 8.86L114.79 8.86Q115.42 9.17 115.81 9.63L115.81 9.63L115.81 9.63Q116.21 10.09 116.40 10.64L116.40 10.64L116.40 10.64Q116.59 11.19 116.59 11.65L116.59 11.65L116.59 12.54ZM113.32 9.58L113.32 9.58L113.32 9.58Q112.85 9.58 112.45 9.72L112.45 9.72L112.45 9.72Q112.06 9.87 111.75 10.14L111.75 10.14L111.75 10.14Q111.45 10.40 111.27 10.76L111.27 10.76L111.27 10.76Q111.08 11.12 111.02 11.54L111.02 11.54L115.50 11.54L115.50 11.54Q115.47 11.09 115.28 10.72L115.28 10.72L115.28 10.72Q115.09 10.36 114.79 10.11L114.79 10.11L114.79 10.11Q114.49 9.86 114.11 9.72L114.11 9.72L114.11 9.72Q113.72 9.58 113.32 9.58ZM132.31 8.74L129.89 15.68L127.74 15.68L125.31 8.74L126.60 8.74L128.73 15.18L128.90 15.18L131.03 8.74L132.31 8.74ZM147.88 12.12L147.88 12.29L147.88 12.29Q147.88 13.16 147.59 13.82L147.59 13.82L147.59 13.82Q147.31 14.49 146.83 14.95L146.83 14.95L146.83 14.95Q146.36 15.40 145.72 15.64L145.72 15.64L145.72 15.64Q145.08 15.88 144.40 15.88L144.40 15.88L144.40 15.88Q143.70 15.88 143.07 15.64L143.07 15.64L143.07 15.64Q142.44 15.40 141.96 14.95L141.96 14.95L141.96 14.95Q141.48 14.49 141.20 13.82L141.20 13.82L141.20 13.82Q140.91 13.16 140.91 12.29L140.91 12.29L140.91 12.12L140.91 12.12Q140.91 11.27 141.20 10.61L141.20 10.61L141.20 10.61Q141.48 9.94 141.97 9.48L141.97 9.48L141.97 9.48Q142.45 9.02 143.08 8.78L143.08 8.78L143.08 8.78Q143.71 8.54 144.40 8.54L144.40 8.54L144.40 8.54Q145.08 8.54 145.71 8.78L145.71 8.78L145.71 8.78Q146.34 9.02 146.82 9.48L146.82 9.48L146.82 9.48Q147.31 9.94 147.59 10.61L147.59 10.61L147.59 10.61Q147.88 11.27 147.88 12.12L147.88 12.12ZM144.40 14.84L144.40 14.84L144.40 14.84Q144.90 14.84 145.33 14.66L145.33 14.66L145.33 14.66Q145.75 14.49 146.08 14.15L146.08 14.15L146.08 14.15Q146.40 13.82 146.58 13.35L146.58 13.35L146.58 13.35Q146.76 12.88 146.76 12.29L146.76 12.29L146.76 12.12L146.76 12.12Q146.76 11.56 146.58 11.09L146.58 11.09L146.58 11.09Q146.40 10.63 146.08 10.29L146.08 10.29L146.08 10.29Q145.75 9.95 145.32 9.77L145.32 9.77L145.32 9.77Q144.89 9.58 144.40 9.58L144.40 9.58L144.40 9.58Q143.91 9.58 143.47 9.77L143.47 9.77L143.47 9.77Q143.04 9.95 142.72 10.29L142.72 10.29L142.72 10.29Q142.39 10.63 142.21 11.09L142.21 11.09L142.21 11.09Q142.03 11.56 142.03 12.12L142.03 12.12L142.03 12.29L142.03 12.29Q142.03 12.88 142.21 13.35L142.21 13.35L142.21 13.35Q142.39 13.82 142.72 14.15L142.72 14.15L142.72 14.15Q143.04 14.49 143.47 14.66L143.47 14.66L143.47 14.66Q143.89 14.84 144.40 14.84ZM156.90 15.68L156.90 14.67L159.42 14.67L159.42 6.89L156.98 6.89L156.98 5.88L160.51 5.88L160.51 14.67L163.03 14.67L163.03 15.68L156.90 15.68ZM177.42 12.35L177.42 8.74L178.51 8.74L178.51 15.68L177.42 15.68L177.42 14.42L177.25 14.42L177.25 14.42Q176.92 15.09 176.37 15.48L176.37 15.48L176.37 15.48Q175.83 15.88 174.99 15.88L174.99 15.88L174.99 15.88Q174.41 15.88 173.93 15.69L173.93 15.69L173.93 15.69Q173.45 15.50 173.10 15.12L173.10 15.12L173.10 15.12Q172.76 14.74 172.57 14.18L172.57 14.18L172.57 14.18Q172.38 13.62 172.38 12.88L172.38 12.88L172.38 8.74L173.47 8.74L173.47 12.74L173.47 12.74Q173.47 13.83 173.92 14.34L173.92 14.34L173.92 14.34Q174.37 14.84 175.29 14.84L175.29 14.84L175.29 14.84Q176.29 14.84 176.86 14.16L176.86 14.16L176.86 14.16Q177.42 13.48 177.42 12.35L177.42 12.35ZM187.80 9.74L187.80 8.74L189.98 8.74L189.98 5.88L191.07 5.88L191.07 8.74L193.76 8.74L193.76 9.74L191.07 9.74L191.07 14.25L191.07 14.25Q191.07 14.67 191.45 14.67L191.45 14.67L193.42 14.67L193.42 15.68L191.06 15.68L191.06 15.68Q190.58 15.68 190.28 15.37L190.28 15.37L190.28 15.37Q189.98 15.06 189.98 14.59L189.98 14.59L189.98 9.74L187.80 9.74ZM205.76 6.66L205.76 6.66L205.76 6.66Q205.76 6.26 206.05 5.97L206.05 5.97L206.05 5.97Q206.33 5.68 206.74 5.68L206.74 5.68L206.74 5.68Q207.14 5.68 207.43 5.97L207.43 5.97L207.43 5.97Q207.72 6.26 207.72 6.66L207.72 6.66L207.72 6.66Q207.72 7.07 207.43 7.36L207.43 7.36L207.43 7.36Q207.14 7.64 206.74 7.64L206.74 7.64L206.74 7.64Q206.33 7.64 206.05 7.36L206.05 7.36L206.05 7.36Q205.76 7.07 205.76 6.66ZM203.77 15.68L203.77 14.67L206.21 14.67L206.21 9.74L204.02 9.74L204.02 8.74L207.30 8.74L207.30 14.67L209.57 14.67L209.57 15.68L203.77 15.68ZM225.72 12.12L225.72 12.29L225.72 12.29Q225.72 13.16 225.44 13.82L225.44 13.82L225.44 13.82Q225.15 14.49 224.67 14.95L224.67 14.95L224.67 14.95Q224.20 15.40 223.56 15.64L223.56 15.64L223.56 15.64Q222.92 15.88 222.24 15.88L222.24 15.88L222.24 15.88Q221.54 15.88 220.91 15.64L220.91 15.64L220.91 15.64Q220.28 15.40 219.80 14.95L219.80 14.95L219.80 14.95Q219.32 14.49 219.04 13.82L219.04 13.82L219.04 13.82Q218.75 13.16 218.75 12.29L218.75 12.29L218.75 12.12L218.75 12.12Q218.75 11.27 219.04 10.61L219.04 10.61L219.04 10.61Q219.32 9.94 219.81 9.48L219.81 9.48L219.81 9.48Q220.29 9.02 220.92 8.78L220.92 8.78L220.92 8.78Q221.55 8.54 222.24 8.54L222.24 8.54L222.24 8.54Q222.92 8.54 223.55 8.78L223.55 8.78L223.55 8.78Q224.18 9.02 224.67 9.48L224.67 9.48L224.67 9.48Q225.15 9.94 225.44 10.61L225.44 10.61L225.44 10.61Q225.72 11.27 225.72 12.12L225.72 12.12ZM222.24 14.84L222.24 14.84L222.24 14.84Q222.74 14.84 223.17 14.66L223.17 14.66L223.17 14.66Q223.59 14.49 223.92 14.15L223.92 14.15L223.92 14.15Q224.24 13.82 224.42 13.35L224.42 13.35L224.42 13.35Q224.60 12.88 224.60 12.29L224.60 12.29L224.60 12.12L224.60 12.12Q224.60 11.56 224.42 11.09L224.42 11.09L224.42 11.09Q224.24 10.63 223.92 10.29L223.92 10.29L223.92 10.29Q223.59 9.95 223.16 9.77L223.16 9.77L223.16 9.77Q222.73 9.58 222.24 9.58L222.24 9.58L222.24 9.58Q221.75 9.58 221.31 9.77L221.31 9.77L221.31 9.77Q220.88 9.95 220.56 10.29L220.56 10.29L220.56 10.29Q220.23 10.63 220.05 11.09L220.05 11.09L220.05 11.09Q219.87 11.56 219.87 12.12L219.87 12.12L219.87 12.29L219.87 12.29Q219.87 12.88 220.05 13.35L220.05 13.35L220.05 13.35Q220.23 13.82 220.56 14.15L220.56 14.15L220.56 14.15Q220.88 14.49 221.31 14.66L221.31 14.66L221.31 14.66Q221.73 14.84 222.24 14.84ZM235.83 12.07L235.83 15.68L234.74 15.68L234.74 8.74L235.83 8.74L235.83 9.91L236.00 9.91L236.00 9.91Q236.64 8.54 238.24 8.54L238.24 8.54L238.24 8.54Q239.44 8.54 240.16 9.29L240.16 9.29L240.16 9.29Q240.87 10.04 240.87 11.54L240.87 11.54L240.87 15.68L239.78 15.68L239.78 11.76L239.78 11.76Q239.78 10.67 239.29 10.12L239.29 10.12L239.29 10.12Q238.80 9.58 237.96 9.58L237.96 9.58L237.96 9.58Q236.96 9.58 236.40 10.25L236.40 10.25L236.40 10.25Q235.83 10.93 235.83 12.07L235.83 12.07Z"></path></g></svg>